<?xml version="1.0" encoding="UTF-8"?>
<svg xmlns="http://www.w3.org/2000/svg" xmlns:xlink="http://www.w3.org/1999/xlink"
     width="1920" height="1080" viewBox="0 0 1920 1080">
  <title>Digital Twin as a Service (DTaaS) desktop background</title>
  <defs>
    <linearGradient id="bg" x1="0" y1="0" x2="0.35" y2="1" gradientUnits="objectBoundingBox">
      <stop offset="0"   stop-color="#EAF1F7"/>
      <stop offset="0.5" stop-color="#F6F1E7"/>
      <stop offset="1"   stop-color="#F3E7DC"/>
    </linearGradient>
  </defs>

  <!-- Background -->
  <rect width="1920" height="1080" fill="url(#bg)"/>

  <!-- Noto Color Emoji artwork, Android 8.0-era designs
       (googlefonts/noto-emoji tag v2017-09-13-design-refresh, Apache-2.0),
       embedded as paths so no emoji font is required. Each group is a 128x128 design. -->
  <g id="emoji-factory" transform="translate(95,445)">
<g>
    <radialGradient id="factory_SVGID_1_" cx="62.0292" cy="1.5286" gradientTransform="matrix(4.499940e-11 1 -1.2431 5.593660e-11 63.9294 -60.5006)" gradientUnits="userSpaceOnUse" r="61.1984">
      <stop offset="0" style="stop-color:#E0E0E0"/>
      <stop offset="0.3926" style="stop-color:#E0E0E0"/>
      <stop offset="0.6549" style="stop-color:#CFCFCF"/>
      <stop offset="1" style="stop-color:#BDBDBD"/>
    </radialGradient>
    <path d="M100.14,12.47C96.71,7.36,90.88,4,84.27,4C78.53,4,73.4,6.54,69.9,10.54 c-2.49-1.49-5.39-2.36-8.5-2.36c-7.35,0-13.57,4.77-15.77,11.38c-7.34,0.05-13.68,4.27-16.79,10.41c-0.83-0.15-1.68-0.24-2.55-0.24 c-7.97,0-14.43,6.46-14.43,14.43c0,7.97,6.46,14.43,14.43,14.43c3.76,0,7.18-1.45,9.75-3.81c2.85,1.7,6.16,2.7,9.72,2.7 c1.59,0,3.13-0.22,4.61-0.59c4.03,5.64,10.62,9.32,18.08,9.32c6.83,0,12.94-3.08,17.01-7.93c3.91,2.55,8.59,4.05,13.61,4.05 c13.78,0,24.94-11.17,24.94-24.94C124,23.97,113.41,13.04,100.14,12.47z" style="fill:url(#factory_SVGID_1_);"/>
    <path d="M34.08,34.58c2.72-0.25,4.79,1.35,5.47,3.94c0.48,1.8,3.17,0.74,2.7-1.04 c-0.31-1.18-0.87-2.22-1.61-3.08c3.77-1.57,7.86-0.88,10.93,1.9c1.38,1.25,3.2-0.99,1.83-2.23c-3.9-3.54-9.54-4.4-14.31-2.15 c-0.35,0.16-0.57,0.41-0.7,0.69c-1.37-0.73-2.97-1.06-4.63-0.91C31.91,31.88,32.23,34.75,34.08,34.58z" style="opacity:0.2;fill:#424242;"/>
    <path d="M100.14,12.47C96.71,7.36,90.88,4,84.27,4C78.53,4,73.4,6.54,69.9,10.54 c-2.49-1.49-5.39-2.36-8.5-2.36c-7.35,0-13.57,4.77-15.77,11.38c-7.34,0.05-13.68,4.27-16.79,10.41c-0.83-0.15-1.68-0.24-2.55-0.24 c-7.97,0-14.43,6.46-14.43,14.43c0,7.97,6.46,14.43,14.43,14.43c3.76,0,7.18-1.45,9.75-3.81c2.84,1.7,6.16,2.7,9.72,2.7 c1.59,0,3.13-0.22,4.61-0.59c4.03,5.64,10.62,9.32,18.08,9.32c6.83,0,12.94-3.08,17.01-7.93c3.91,2.55,8.59,4.05,13.61,4.05 c13.78,0,24.94-11.17,24.94-24.94C124,23.97,113.41,13.04,100.14,12.47z M99.06,59.33c-4.27,0-8.41-1.23-11.97-3.56 c-0.3-0.2-0.62-0.32-0.96-0.4c-4.15-1.88-6.33-5.84-5.65-10.33c0.28-1.87-2.63-2.31-2.91-0.43c-0.75,4.94,1.28,9.46,5.18,12.19 c-3.65,4.08-8.83,6.41-14.31,6.41c-6.19,0-12.03-3.01-15.64-8.06c-0.57-0.8-1.49-1.26-2.44-1.26c-0.24,0-0.49,0.03-0.73,0.09 c-1.32,0.33-2.63,0.5-3.88,0.5c-2.86,0-5.69-0.79-8.18-2.28c-0.48-0.29-1.01-0.43-1.54-0.43c-0.73,0-1.46,0.27-2.03,0.79 c-2.12,1.95-4.86,3.02-7.72,3.02c-6.3,0-11.43-5.13-11.43-11.43c0-6.3,5.13-11.43,11.43-11.43c0.64,0,1.3,0.06,2.02,0.19 c0.18,0.03,0.35,0.05,0.53,0.05c1.12,0,2.16-0.62,2.68-1.64c2.72-5.37,8.14-8.73,14.13-8.77c1.29-0.01,2.42-0.83,2.83-2.05 c1.86-5.58,7.05-9.29,12.92-9.33c7.98-0.05,12.59,6.3,12.19,9.37c-0.28,2.14,3.07,2.2,3.35,0.08c0.19-1.41,0.04-2.77-0.37-4.01 c4.74-0.01,8.82,2.53,10.88,6.87c0.93,1.95,3.87,0.36,2.95-1.59c-2.62-5.52-8.29-8.93-14.39-8.62c-0.44,0.02-0.79,0.19-1.06,0.43 c-0.6-0.72-1.32-1.35-2.13-1.87C75.85,8.76,79.96,7,84.27,7c5.38,0,10.38,2.67,13.38,7.14c0.53,0.79,1.41,1.28,2.36,1.32 C111.78,15.97,121,25.6,121,37.39C121,49.49,111.16,59.33,99.06,59.33z" style="opacity:0.2;fill:#424242;"/>
    <g>
      <radialGradient id="factory_SVGID_2_" cx="22" cy="44.0833" gradientUnits="userSpaceOnUse" r="50.3433">
        <stop offset="3.176769e-03" style="stop-color:#EF5350"/>
        <stop offset="0.3272" style="stop-color:#EA4D4A"/>
        <stop offset="0.7789" style="stop-color:#DC3A3A"/>
        <stop offset="1" style="stop-color:#D32F2F"/>
      </radialGradient>
      <path d="M27.97,44H16.92c-2.85,0-5.19,1.66-5.3,3.76l-0.23,4.09H33.5l-0.23-4.09 C33.15,45.66,30.81,44,27.97,44z" style="fill:url(#factory_SVGID_2_);"/>
      <radialGradient id="factory_SVGID_3_" cx="22.6667" cy="52.5833" gradientUnits="userSpaceOnUse" r="11.1679">
        <stop offset="3.176769e-03" style="stop-color:#FAFAFA"/>
        <stop offset="0.6677" style="stop-color:#F4F4F4"/>
        <stop offset="1" style="stop-color:#EEEEEE"/>
      </radialGradient>
      <polygon points="33.5,51.85 11.38,51.85 10.94,59.69 33.94,59.69 " style="fill:url(#factory_SVGID_3_);"/>
      <radialGradient id="factory_SVGID_4_" cx="22" cy="44.0833" gradientUnits="userSpaceOnUse" r="50.3433">
        <stop offset="3.176769e-03" style="stop-color:#EF5350"/>
        <stop offset="0.3272" style="stop-color:#EA4D4A"/>
        <stop offset="0.7789" style="stop-color:#DC3A3A"/>
        <stop offset="1" style="stop-color:#D32F2F"/>
      </radialGradient>
      <polygon points="10.94,59.69 10.5,67.54 34.39,67.54 33.94,59.69 " style="fill:url(#factory_SVGID_4_);"/>
      <radialGradient id="factory_SVGID_5_" cx="22.3333" cy="68.5833" gradientUnits="userSpaceOnUse" r="9.1727">
        <stop offset="3.176769e-03" style="stop-color:#FAFAFA"/>
        <stop offset="0.6677" style="stop-color:#F4F4F4"/>
        <stop offset="1" style="stop-color:#EEEEEE"/>
      </radialGradient>
      <polygon points="10.06,75.39 34.83,75.39 34.39,67.54 10.5,67.54 " style="fill:url(#factory_SVGID_5_);"/>
      <radialGradient id="factory_SVGID_6_" cx="22" cy="44.0833" gradientUnits="userSpaceOnUse" r="50.3433">
        <stop offset="3.176769e-03" style="stop-color:#EF5350"/>
        <stop offset="0.3272" style="stop-color:#EA4D4A"/>
        <stop offset="0.7789" style="stop-color:#DC3A3A"/>
        <stop offset="1" style="stop-color:#D32F2F"/>
      </radialGradient>
      <polygon points="36.16,98.93 35.71,91.08 35.27,83.24 34.83,75.39 10.06,75.39 9.61,83.24 9.17,91.08 8.73,98.93 8.44,104 36.44,104 " style="fill:url(#factory_SVGID_6_);"/>
    </g>
    <linearGradient id="factory_SVGID_7_" gradientUnits="userSpaceOnUse" x1="22.4426" x2="22.4426" y1="85.9166" y2="75.082">
      <stop offset="0" style="stop-color:#B71C1C"/>
      <stop offset="1" style="stop-color:#B71C1C;stop-opacity:0"/>
    </linearGradient>
    <path d="M36.16,98.93l-0.44-7.85l-0.44-7.85l-0.44-7.85h0l-0.44-7.85l-0.44-7.85l-0.44-7.85 l-0.23-4.09c-0.12-2.1-2.46-3.76-5.3-3.76H16.92c-2.85,0-5.19,1.66-5.3,3.76l-0.23,4.09l-0.44,7.85l-0.44,7.85l-0.44,7.85 l-0.44,7.85l-0.44,7.85l-0.44,7.85L8.44,104h28L36.16,98.93z" style="fill:url(#factory_SVGID_7_);"/>
    <g>
      <radialGradient id="factory_SVGID_8_" cx="63.5574" cy="44.0833" gradientUnits="userSpaceOnUse" r="50.3433">
        <stop offset="3.176769e-03" style="stop-color:#EF5350"/>
        <stop offset="0.3272" style="stop-color:#EA4D4A"/>
        <stop offset="0.7789" style="stop-color:#DC3A3A"/>
        <stop offset="1" style="stop-color:#D32F2F"/>
      </radialGradient>
      <path d="M69.53,44H58.47c-2.85,0-5.19,1.66-5.3,3.76l-0.23,4.09h22.12l-0.23-4.09 C74.71,45.66,72.37,44,69.53,44z" style="fill:url(#factory_SVGID_8_);"/>
      <radialGradient id="factory_SVGID_9_" cx="64.224" cy="52.5833" gradientUnits="userSpaceOnUse" r="11.1679">
        <stop offset="3.176769e-03" style="stop-color:#FAFAFA"/>
        <stop offset="0.6677" style="stop-color:#F4F4F4"/>
        <stop offset="1" style="stop-color:#EEEEEE"/>
      </radialGradient>
      <polygon points="75.06,51.85 52.94,51.85 52.5,59.69 75.5,59.69 " style="fill:url(#factory_SVGID_9_);"/>
      <radialGradient id="factory_SVGID_10_" cx="63.5574" cy="44.0833" gradientUnits="userSpaceOnUse" r="50.3433">
        <stop offset="3.176769e-03" style="stop-color:#EF5350"/>
        <stop offset="0.3272" style="stop-color:#EA4D4A"/>
        <stop offset="0.7789" style="stop-color:#DC3A3A"/>
        <stop offset="1" style="stop-color:#D32F2F"/>
      </radialGradient>
      <polygon points="52.5,59.69 52.06,67.54 75.94,67.54 75.5,59.69 " style="fill:url(#factory_SVGID_10_);"/>
      <radialGradient id="factory_SVGID_11_" cx="63.8907" cy="68.5833" gradientUnits="userSpaceOnUse" r="9.1727">
        <stop offset="3.176769e-03" style="stop-color:#FAFAFA"/>
        <stop offset="0.6677" style="stop-color:#F4F4F4"/>
        <stop offset="1" style="stop-color:#EEEEEE"/>
      </radialGradient>
      <polygon points="51.61,75.39 76.39,75.39 75.94,67.54 52.06,67.54 " style="fill:url(#factory_SVGID_11_);"/>
      <radialGradient id="factory_SVGID_12_" cx="63.5574" cy="44.0833" gradientUnits="userSpaceOnUse" r="50.3433">
        <stop offset="3.176769e-03" style="stop-color:#EF5350"/>
        <stop offset="0.3272" style="stop-color:#EA4D4A"/>
        <stop offset="0.7789" style="stop-color:#DC3A3A"/>
        <stop offset="1" style="stop-color:#D32F2F"/>
      </radialGradient>
      <polygon points="77.71,98.93 77.27,91.08 76.83,83.24 76.39,75.39 51.61,75.39 51.17,83.24 50.73,91.08 50.29,98.93 50,104 78,104 " style="fill:url(#factory_SVGID_12_);"/>
    </g>
    <linearGradient id="factory_SVGID_13_" gradientUnits="userSpaceOnUse" x1="64" x2="64" y1="85.9166" y2="75.082">
      <stop offset="0" style="stop-color:#B71C1C"/>
      <stop offset="1" style="stop-color:#B71C1C;stop-opacity:0"/>
    </linearGradient>
    <path d="M77.71,98.93l-0.44-7.85l-0.44-7.85l-0.44-7.85h0l-0.44-7.85l-0.44-7.85l-0.44-7.85 l-0.23-4.09c-0.12-2.1-2.46-3.76-5.3-3.76H58.47c-2.85,0-5.19,1.66-5.3,3.76l-0.23,4.09l-0.44,7.85l-0.44,7.85l-0.44,7.85 l-0.44,7.85l-0.44,7.85l-0.44,7.85L50,104h28L77.71,98.93z" style="fill:url(#factory_SVGID_13_);"/>
    <g style="opacity:0.2;">
      <path d="M27.97,47c1.47,0,2.26,0.71,2.31,0.93l0.23,4.09l0.44,7.85l0.44,7.85l0.44,7.85l0.44,7.85 l0.44,7.85l0.44,7.85l0.11,1.9H11.62l0.11-1.9l0.44-7.85l0.44-7.85l0.44-7.85l0.44-7.85l0.44-7.85l0.44-7.85l0.23-4.08 c0.05-0.23,0.84-0.93,2.31-0.93H27.97 M27.97,44H16.92c-2.85,0-5.19,1.66-5.3,3.76l-0.23,4.09l-0.44,7.85l-0.44,7.85l-0.44,7.85 l-0.44,7.85l-0.44,7.85l-0.44,7.85L8.44,104h28l-0.29-5.07l-0.44-7.85l-0.44-7.85l-0.44-7.85h0l-0.44-7.85l-0.44-7.85l-0.44-7.85 l-0.23-4.09C33.15,45.66,30.81,44,27.97,44L27.97,44z" style="fill:#424242;"/>
    </g>
    <g style="opacity:0.2;">
      <path d="M69.53,47c1.47,0,2.26,0.71,2.31,0.93l0.23,4.09l0.44,7.85l0.44,7.85l0.44,7.85l0.44,7.85 l0.44,7.85l0.44,7.85l0.11,1.9H53.17l0.11-1.9l0.44-7.85l0.44-7.85l0.44-7.85l0.44-7.85l0.44-7.85l0.44-7.85l0.23-4.08 c0.05-0.23,0.84-0.93,2.31-0.93H69.53 M69.53,44H58.47c-2.85,0-5.19,1.66-5.3,3.76l-0.23,4.09l-0.44,7.85l-0.44,7.85l-0.44,7.85 l-0.44,7.85l-0.44,7.85l-0.44,7.85L50,104h28l-0.29-5.07l-0.44-7.85l-0.44-7.85l-0.44-7.85h0l-0.44-7.85l-0.44-7.85l-0.44-7.85 l-0.23-4.09C74.71,45.66,72.37,44,69.53,44L69.53,44z" style="fill:#424242;"/>
    </g>
    <linearGradient id="factory_SVGID_14_" gradientUnits="userSpaceOnUse" x1="64" x2="64" y1="94.6856" y2="42.7976">
      <stop offset="0" style="stop-color:#B71C1C"/>
      <stop offset="1" style="stop-color:#D32F2F"/>
    </linearGradient>
    <polygon points="52.94,96 75.06,96 74.59,88 53.41,88 " style="fill:url(#factory_SVGID_14_);"/>
    <radialGradient id="factory_SVGID_15_" cx="62.5" cy="83.25" gradientTransform="matrix(4.499940e-11 1 -1.7549 7.896759e-11 208.592 20.75)" gradientUnits="userSpaceOnUse" r="43.7357">
      <stop offset="3.176769e-03" style="stop-color:#EF5350"/>
      <stop offset="0.3796" style="stop-color:#EF5350"/>
      <stop offset="1" style="stop-color:#D32F2F"/>
    </radialGradient>
    <path d="M124,124H4V91c0-3.87,3.13-7,7-7h106c3.87,0,7,3.13,7,7V124z" style="fill:url(#factory_SVGID_15_);"/>
    <g style="opacity:0.2;">
      <path d="M117,87c2.21,0,4,1.79,4,4v30H7V91c0-2.21,1.79-4,4-4H117 M117,84H11c-3.87,0-7,3.13-7,7v33h120V91 C124,87.13,120.87,84,117,84L117,84z" style="fill:#424242;"/>
    </g>
    <path d="M84,102.13h-4.79c-1.1,0-2-0.9-2-2v-0.86c0-1.1,0.9-2,2-2H84c1.1,0,2,0.9,2,2v0.86 C86,101.23,85.1,102.13,84,102.13z" style="fill:#E53935;"/>
    <path d="M116.44,107.75h-6.17c-1.1,0-2-0.9-2-2v-1.62c0-1.1,0.9-2,2-2h6.17c1.1,0,2,0.9,2,2v1.62 C118.44,106.85,117.54,107.75,116.44,107.75z" style="fill:#B71C1C;"/>
    <path d="M103.45,111.32h-5.75c-1.1,0-2-0.9-2-2v-1.39c0-1.1,0.9-2,2-2h5.75c1.1,0,2,0.9,2,2v1.39 C105.45,110.43,104.56,111.32,103.45,111.32z" style="fill:#EF5350;"/>
    <path d="M117.62,118.62h-9.27c-1.1,0-2-0.9-2-2v-3.34c0-1.1,0.9-2,2-2h9.27c1.1,0,2,0.9,2,2v3.34 C119.62,117.73,118.73,118.62,117.62,118.62z" style="fill:#C62828;"/>
    <path d="M81.46,95.8h-8.17c-1.1,0-2-0.9-2-2v-2.73c0-1.1,0.9-2,2-2h8.17c1.1,0,2,0.9,2,2v2.73 C83.46,94.9,82.56,95.8,81.46,95.8z" style="fill:#C62828;"/>
    <path d="M53.58,102.5h8.77c1.1,0,2-0.9,2-2v-3.06c0-1.1-0.9-2-2-2h-8.77c-1.1,0-2,0.9-2,2v3.06 C51.58,101.6,52.48,102.5,53.58,102.5z" style="fill:#C62828;"/>
    <path d="M9.96,119.88h8.77c1.1,0,2-0.9,2-2v-3.06c0-1.1-0.9-2-2-2H9.96c-1.1,0-2,0.9-2,2v3.06 C7.96,118.98,8.86,119.88,9.96,119.88z" style="fill:#B71C1C;"/>
    <path d="M22.14,112.33h6.48c0.9,0,1.62-0.73,1.62-1.62v-2.13c0-0.9-0.73-1.62-1.62-1.62h-6.48 c-0.9,0-1.62,0.73-1.62,1.62v2.13C20.52,111.61,21.25,112.33,22.14,112.33z" style="fill:#EF5350;"/>
    <path d="M26,104h-8c-1.1,0-2-0.9-2-2v-8c0-1.1,0.9-2,2-2h8c1.1,0,2,0.9,2,2v8C28,103.1,27.1,104,26,104z" style="fill:#4FC3F7;"/>
    <path d="M68,104h-8c-1.1,0-2-0.9-2-2v-8c0-1.1,0.9-2,2-2h8c1.1,0,2,0.9,2,2v8C70,103.1,69.1,104,68,104z" style="fill:#4FC3F7;"/>
    <path d="M110,104h-8c-1.1,0-2-0.9-2-2v-8c0-1.1,0.9-2,2-2h8c1.1,0,2,0.9,2,2v8C112,103.1,111.1,104,110,104 z" style="fill:#4FC3F7;"/>
  </g>
  </g>
  <g id="emoji-arrow" transform="translate(255,447)">
<g>
    <linearGradient id="arrow_SVGID_1_" gradientUnits="userSpaceOnUse" x1="64" x2="64" y1="4.25" y2="124.4088">
      <stop offset="0" style="stop-color:#40C4FF"/>
      <stop offset="0.3517" style="stop-color:#2DB5F9"/>
      <stop offset="1" style="stop-color:#0091EA"/>
    </linearGradient>
    <path d="M116,124H12c-4.42,0-8-3.58-8-8V12c0-4.42,3.58-8,8-8h104c4.42,0,8,3.58,8,8v104 C124,120.42,120.42,124,116,124z" style="fill:url(#arrow_SVGID_1_);"/>
    <g style="opacity:0.2;">
      <path d="M116,7c2.76,0,5,2.24,5,5v104c0,2.76-2.24,5-5,5H12c-2.76,0-5-2.24-5-5V12c0-2.76,2.24-5,5-5H116 M116,4H12c-4.42,0-8,3.58-8,8v104c0,4.42,3.58,8,8,8h104c4.42,0,8-3.58,8-8V12C124,7.58,120.42,4,116,4L116,4z" style="fill:#424242;"/>
    </g>
    <g style="opacity:0.2;">
      <path d="M43.98,36c2.06,0,4.02,1.62,4.02,4.01V54c0,1.1,0.9,2,2,2h28c1.1,0,2-0.9,2-2V40.01 c0-2.39,1.96-4.01,4.02-4.01c0.9,0,1.82,0.31,2.61,1l24,23.99c1.82,1.59,1.82,4.43,0,6.02L86.63,91c-0.79,0.69-1.71,1-2.61,1 C81.96,92,80,90.38,80,87.99V74c0-1.1-0.9-2-2-2H50c-1.1,0-2,0.9-2,2v13.99c0,2.39-1.96,4.01-4.02,4.01c-0.9,0-1.82-0.31-2.61-1 l-24-23.99c-1.82-1.59-1.82-4.43,0-6.02l24-23.99C42.15,36.31,43.07,36,43.98,36 M43.98,33L43.98,33c-1.68,0-3.3,0.62-4.59,1.74 l-0.08,0.07l-0.07,0.07L15.31,58.81C13.84,60.13,13,62.02,13,64c0,1.98,0.84,3.87,2.31,5.19l23.94,23.93l0.07,0.07l0.08,0.07 C40.67,94.38,42.3,95,43.98,95c3.87,0,7.02-3.14,7.02-7.01V75h26v12.99c0,3.86,3.15,7.01,7.02,7.01c1.68,0,3.3-0.62,4.59-1.74 l0.07-0.07l0.07-0.07l23.94-23.93c1.47-1.33,2.31-3.21,2.31-5.19c0-1.98-0.84-3.87-2.31-5.19L88.76,34.88l-0.07-0.07l-0.07-0.07 C87.33,33.62,85.7,33,84.02,33C80.15,33,77,36.14,77,40.01V53H51V40.01C51,36.14,47.85,33,43.98,33L43.98,33L43.98,33z" style="fill:#424242;"/>
    </g>
    <path d="M110.63,60.99L86.63,37C84.05,34.73,80,36.57,80,40.01V54c0,1.1-0.9,2-2,2H50c-1.1,0-2-0.9-2-2 V40.01c0-3.44-4.05-5.27-6.63-3.01l-24,23.99c-1.82,1.59-1.82,4.43,0,6.02l24,23.99c2.59,2.26,6.63,0.43,6.63-3.01V74 c0-1.1,0.9-2,2-2h28c1.1,0,2,0.9,2,2v13.99c0,3.44,4.05,5.27,6.63,3.01l24-23.99C112.46,65.42,112.46,62.58,110.63,60.99z" style="fill:#FAFAFA;"/>
  </g>
  </g>
  <g id="emoji-people" transform="translate(400,447)">
<g id="people_Layer_1">
    <g>
      <defs>
        <polyline id="people_SVGID_1_" points="124,4 124,124 4,124 4,4 "/>
      </defs>
      <clipPath id="people_SVGID_2_">
        <use style="overflow:visible;" xlink:href="#people_SVGID_1_"/>
      </clipPath>
      <g style="clip-path:url(#people_SVGID_2_);">
        <g>
          <linearGradient id="people_SVGID_3_" gradientTransform="matrix(-1 0 0 1 128.1875 0)" gradientUnits="userSpaceOnUse" x1="45.6402" x2="45.6402" y1="27.8609" y2="123.4769">
            <stop offset="0.18" style="stop-color:#64B5F6"/>
            <stop offset="0.834" style="stop-color:#2196F3"/>
          </linearGradient>
          <path d="M75.18,100.52v-0.87c-7.56-2.23-14.24-7.97-17.57-17.28c-3.42-1.24-5.36-12.41-4.44-13.88 c-0.72-4.81-5.05-41.56,29.37-41.75v0c0,0,0.01,0,0.01,0c0,0,0.01,0,0.01,0v0c34.51,0.18,30.07,37.12,29.37,41.78 c0.91,1.46-1.04,12.59-4.46,13.84c-3.33,9.31-10.01,15.06-17.57,17.28v0.86c17.96,1.32,34.09,7.53,34.09,20.22V124H41.09v-3.28 C41.09,108.73,57.14,101.95,75.18,100.52z" style="fill:url(#people_SVGID_3_);"/>
        </g>
        <g style="opacity:0.2;">
          <path d="M82.53,29.74c0.01,0,0.02,0,0.03,0v0c8.87,0.05,15.65,2.73,20.13,7.96 c8.96,10.46,6.58,28.37,6.28,30.38c-0.08,0.53-0.01,1.07,0.18,1.56c0.06,0.68-0.1,2.76-0.77,5.28 c-0.81,3.09-1.74,4.39-2.05,4.66c-0.79,0.32-1.4,0.96-1.69,1.77c-2.79,7.8-8.33,13.28-15.59,15.42 c-1.28,0.38-2.15,1.55-2.15,2.88v0.86c0,1.57,1.21,2.88,2.78,2.99c15.14,1.11,31.31,6.22,31.31,17.23V125H44.09v-4.28 c0-10.18,15.73-15.98,31.33-17.21c1.56-0.12,2.76-1.43,2.76-2.99v-0.87c0-1.33-0.88-2.5-2.15-2.88 c-7.27-2.14-12.8-7.61-15.59-15.42c-0.29-0.8-0.9-1.45-1.69-1.77c-0.31-0.27-1.23-1.57-2.04-4.67 c-0.66-2.53-0.81-4.61-0.76-5.29c0.2-0.49,0.27-1.04,0.19-1.57c-0.3-2.01-2.66-19.91,6.3-30.35 C66.92,32.47,73.68,29.8,82.53,29.74 M82.57,26.74c0,0-0.01,0-0.01,0s-0.01,0-0.01,0v0c-34.42,0.18-30.09,36.93-29.37,41.75 c-0.92,1.47,1.02,12.63,4.44,13.88c3.33,9.31,10.01,15.06,17.57,17.28v0.87c-18.04,1.43-34.09,8.21-34.09,20.2V128H124v-7.28 c0-12.69-16.13-18.9-34.09-20.22v-0.86c7.56-2.23,14.24-7.97,17.57-17.28c3.42-1.24,5.37-12.38,4.46-13.84 C112.64,63.86,117.08,26.93,82.57,26.74L82.57,26.74L82.57,26.74z" style="fill:#424242;"/>
        </g>
        <g>
          <g>
            <linearGradient id="people_SVGID_5_" gradientTransform="matrix(-1 0 0 1 128.1875 0)" gradientUnits="userSpaceOnUse" x1="82.5474" x2="82.5474" y1="27.8609" y2="123.4769">
              <stop offset="0.3205" style="stop-color:#1976D2"/>
              <stop offset="0.8896" style="stop-color:#0D47A1"/>
            </linearGradient>
            <path d="M38.28,100.52v-0.87c-7.56-2.23-14.24-7.97-17.57-17.28 c-3.42-1.24-5.36-12.41-4.44-13.88c-0.72-4.81-5.05-41.56,29.37-41.75v0c0,0,0.01,0,0.01,0s0.01,0,0.01,0v0 c34.51,0.18,30.07,37.12,29.37,41.78c0.91,1.46-1.04,12.59-4.46,13.84C67.24,91.68,60.56,97.42,53,99.65v0.86 c17.96,1.32,34.09,7.53,34.09,20.22V124H4.19v-3.28C4.19,108.73,20.24,101.95,38.28,100.52z" style="fill:url(#people_SVGID_5_);"/>
          </g>
          <g style="opacity:0.2;">
            <path d="M45.62,29.74c0.01,0,0.02,0,0.03,0v0c8.87,0.05,15.65,2.73,20.13,7.96 c8.96,10.46,6.58,28.37,6.28,30.38c-0.08,0.53-0.01,1.07,0.18,1.56c0.06,0.68-0.1,2.76-0.77,5.28 c-0.81,3.09-1.74,4.39-2.05,4.66c-0.79,0.32-1.4,0.96-1.69,1.77c-2.79,7.8-8.33,13.28-15.59,15.42 C50.88,97.15,50,98.32,50,99.65v0.86c0,1.57,1.21,2.88,2.78,2.99c15.14,1.11,31.31,6.22,31.31,17.23V125H7.19v-4.28 c0-10.18,15.73-15.98,31.33-17.21c1.56-0.12,2.76-1.43,2.76-2.99v-0.87c0-1.33-0.88-2.5-2.15-2.88 c-7.27-2.14-12.8-7.61-15.59-15.42c-0.29-0.8-0.9-1.45-1.69-1.77c-0.31-0.27-1.23-1.57-2.04-4.67 c-0.66-2.53-0.81-4.61-0.76-5.29c0.2-0.49,0.27-1.04,0.19-1.57c-0.3-2.01-2.66-19.91,6.3-30.35 C30.01,32.47,36.78,29.8,45.62,29.74 M45.67,26.74c0,0-0.01,0-0.01,0c0,0-0.01,0-0.01,0v0 c-34.42,0.18-30.09,36.93-29.37,41.75c-0.92,1.47,1.02,12.63,4.44,13.88c3.33,9.31,10.01,15.06,17.57,17.28v0.87 c-18.04,1.43-34.09,8.21-34.09,20.2V128h82.91v-7.28c0-12.69-16.13-18.9-34.09-20.22v-0.86c7.56-2.23,14.24-7.97,17.57-17.28 c3.42-1.24,5.37-12.38,4.46-13.84C75.73,63.86,80.18,26.93,45.67,26.74L45.67,26.74L45.67,26.74z" style="fill:#424242;"/>
          </g>
        </g>
      </g>
    </g>
  </g>
  <g id="people_Layer_2" style="display:none;">
    <g style="display:inline;">
      <g style="opacity:0.6;">
        <circle cx="64" cy="64" r="28" style="opacity:0.61;fill:none;stroke:#000000;stroke-width:0.2625;stroke-miterlimit:10;"/>
        <line style="opacity:0.61;fill:none;stroke:#000000;stroke-width:0.25;stroke-miterlimit:10;" x1="84" x2="84" y1="0" y2="128"/>
        <line style="opacity:0.61;fill:none;stroke:#000000;stroke-width:0.25;stroke-miterlimit:10;" x1="44" x2="44" y1="0" y2="128"/>
        <line style="opacity:0.61;fill:none;stroke:#000000;stroke-width:0.25;stroke-miterlimit:10;" x1="64" x2="64" y1="0" y2="128"/>
        <line style="opacity:0.61;fill:none;stroke:#000000;stroke-width:0.25;stroke-miterlimit:10;" x1="128" x2="0" y1="64" y2="64"/>
        <line style="opacity:0.61;fill:none;stroke:#000000;stroke-width:0.25;stroke-miterlimit:10;" x1="128" x2="0" y1="44" y2="44"/>
        <line style="opacity:0.61;fill:none;stroke:#000000;stroke-width:0.25;stroke-miterlimit:10;" x1="128" x2="0" y1="83.75" y2="83.75"/>
        <line style="opacity:0.61;fill:none;stroke:#000000;stroke-width:0.25;stroke-miterlimit:10;" x1="128" x2="0" y1="128" y2="0"/>
        <line style="opacity:0.61;fill:none;stroke:#000000;stroke-width:0.25;stroke-miterlimit:10;" x1="0" x2="128" y1="128" y2="0"/>
        <g style="opacity:0.61;">
          <path d="M64,4.26c32.94,0,59.74,26.8,59.74,59.74S96.94,123.74,64,123.74S4.26,96.94,4.26,64S31.06,4.26,64,4.26 M64,4 C30.86,4,4,30.86,4,64s26.86,60,60,60s60-26.86,60-60S97.14,4,64,4L64,4z"/>
        </g>
        <path d="M107.97,115.97H20.03 c-4.42,0-8.03-3.61-8.03-8.03V20.03c0-4.42,3.61-8.03,8.03-8.03h87.94c4.42,0,8.03,3.61,8.03,8.03v87.91 C116,112.36,112.39,115.97,107.97,115.97z" style="opacity:0.61;fill:none;stroke:#000000;stroke-width:0.2578;stroke-miterlimit:10;"/>
        <path d="M100,124H28c-4.4,0-8-3.6-8-8 V12c0-4.4,3.6-8,8-8h72c4.4,0,8,3.6,8,8v104C108,120.4,104.4,124,100,124z" style="opacity:0.61;fill:none;stroke:#000000;stroke-width:0.2628;stroke-miterlimit:10;"/>
        <path d="M113.77,108H14.23 C8.6,108,4,103.4,4,97.77V30.28c0-5.63,4.6-10.23,10.23-10.23h99.54c5.63,0,10.23,4.6,10.23,10.23v67.48 C124,103.4,119.4,108,113.77,108z" style="opacity:0.61;fill:none;stroke:#000000;stroke-width:0.2627;stroke-miterlimit:10;"/>
      </g>
      <g>
        <g style="opacity:0.2;">
          <defs>
            <rect id="people_SVGID_4_" height="128" style="opacity:0.2;" width="128" x="0" y="0"/>
          </defs>
          <clipPath id="people_SVGID_6_">
            <use style="overflow:visible;" xlink:href="#people_SVGID_4_"/>
          </clipPath>
          <g style="clip-path:url(#people_SVGID_6_);">
            <g>
              <line style="fill:none;stroke:#000000;stroke-width:0.25;stroke-miterlimit:10;" x1="-28" x2="-28" y1="160" y2="-32"/>
              <line style="fill:none;stroke:#000000;stroke-width:0.25;stroke-miterlimit:10;" x1="-24" x2="-24" y1="160" y2="-32"/>
              <line style="fill:none;stroke:#000000;stroke-width:0.25;stroke-miterlimit:10;" x1="-20" x2="-20" y1="160" y2="-32"/>
              <line style="fill:none;stroke:#000000;stroke-width:0.25;stroke-miterlimit:10;" x1="-16" x2="-16" y1="160" y2="-32"/>
              <line style="fill:none;stroke:#000000;stroke-width:0.25;stroke-miterlimit:10;" x1="-12" x2="-12" y1="160" y2="-32"/>
              <line style="fill:none;stroke:#000000;stroke-width:0.25;stroke-miterlimit:10;" x1="-8" x2="-8" y1="160" y2="-32"/>
              <line style="fill:none;stroke:#000000;stroke-width:0.25;stroke-miterlimit:10;" x1="-4" x2="-4" y1="160" y2="-32"/>
              <line style="fill:none;stroke:#000000;stroke-width:0.25;stroke-miterlimit:10;" x1="0" x2="0" y1="160" y2="-32"/>
              <line style="fill:none;stroke:#000000;stroke-width:0.25;stroke-miterlimit:10;" x1="4" x2="4" y1="160" y2="-32"/>
              <line style="fill:none;stroke:#000000;stroke-width:0.25;stroke-miterlimit:10;" x1="8" x2="8" y1="160" y2="-32"/>
              <line style="fill:none;stroke:#000000;stroke-width:0.25;stroke-miterlimit:10;" x1="12" x2="12" y1="160" y2="-32"/>
              <line style="fill:none;stroke:#000000;stroke-width:0.25;stroke-miterlimit:10;" x1="16" x2="16" y1="160" y2="-32"/>
              <line style="fill:none;stroke:#000000;stroke-width:0.25;stroke-miterlimit:10;" x1="20" x2="20" y1="160" y2="-32"/>
              <line style="fill:none;stroke:#000000;stroke-width:0.25;stroke-miterlimit:10;" x1="24" x2="24" y1="160" y2="-32"/>
              <line style="fill:none;stroke:#000000;stroke-width:0.25;stroke-miterlimit:10;" x1="28" x2="28" y1="160" y2="-32"/>
              <line style="fill:none;stroke:#000000;stroke-width:0.25;stroke-miterlimit:10;" x1="32" x2="32" y1="160" y2="-32"/>
              <line style="fill:none;stroke:#000000;stroke-width:0.25;stroke-miterlimit:10;" x1="36" x2="36" y1="160" y2="-32"/>
              <line style="fill:none;stroke:#000000;stroke-width:0.25;stroke-miterlimit:10;" x1="40" x2="40" y1="160" y2="-32"/>
              <line style="fill:none;stroke:#000000;stroke-width:0.25;stroke-miterlimit:10;" x1="44" x2="44" y1="160" y2="-32"/>
              <line style="fill:none;stroke:#000000;stroke-width:0.25;stroke-miterlimit:10;" x1="48" x2="48" y1="160" y2="-32"/>
              <line style="fill:none;stroke:#000000;stroke-width:0.25;stroke-miterlimit:10;" x1="52" x2="52" y1="160" y2="-32"/>
              <line style="fill:none;stroke:#000000;stroke-width:0.25;stroke-miterlimit:10;" x1="56" x2="56" y1="160" y2="-32"/>
              <line style="fill:none;stroke:#000000;stroke-width:0.25;stroke-miterlimit:10;" x1="60" x2="60" y1="160" y2="-32"/>
              <line style="fill:none;stroke:#000000;stroke-width:0.25;stroke-miterlimit:10;" x1="64" x2="64" y1="160" y2="-32"/>
              <line style="fill:none;stroke:#000000;stroke-width:0.25;stroke-miterlimit:10;" x1="68" x2="68" y1="160" y2="-32"/>
              <line style="fill:none;stroke:#000000;stroke-width:0.25;stroke-miterlimit:10;" x1="72" x2="72" y1="160" y2="-32"/>
              <line style="fill:none;stroke:#000000;stroke-width:0.25;stroke-miterlimit:10;" x1="76" x2="76" y1="160" y2="-32"/>
              <line style="fill:none;stroke:#000000;stroke-width:0.25;stroke-miterlimit:10;" x1="80" x2="80" y1="160" y2="-32"/>
              <line style="fill:none;stroke:#000000;stroke-width:0.25;stroke-miterlimit:10;" x1="84" x2="84" y1="160" y2="-32"/>
              <line style="fill:none;stroke:#000000;stroke-width:0.25;stroke-miterlimit:10;" x1="88" x2="88" y1="160" y2="-32"/>
              <line style="fill:none;stroke:#000000;stroke-width:0.25;stroke-miterlimit:10;" x1="92" x2="92" y1="160" y2="-32"/>
              <line style="fill:none;stroke:#000000;stroke-width:0.25;stroke-miterlimit:10;" x1="96" x2="96" y1="160" y2="-32"/>
              <line style="fill:none;stroke:#000000;stroke-width:0.25;stroke-miterlimit:10;" x1="100" x2="100" y1="160" y2="-32"/>
              <line style="fill:none;stroke:#000000;stroke-width:0.25;stroke-miterlimit:10;" x1="104" x2="104" y1="160" y2="-32"/>
              <line style="fill:none;stroke:#000000;stroke-width:0.25;stroke-miterlimit:10;" x1="108" x2="108" y1="160" y2="-32"/>
              <line style="fill:none;stroke:#000000;stroke-width:0.25;stroke-miterlimit:10;" x1="112" x2="112" y1="160" y2="-32"/>
              <line style="fill:none;stroke:#000000;stroke-width:0.25;stroke-miterlimit:10;" x1="116" x2="116" y1="160" y2="-32"/>
              <line style="fill:none;stroke:#000000;stroke-width:0.25;stroke-miterlimit:10;" x1="120" x2="120" y1="160" y2="-32"/>
              <line style="fill:none;stroke:#000000;stroke-width:0.25;stroke-miterlimit:10;" x1="124" x2="124" y1="160" y2="-32"/>
              <line style="fill:none;stroke:#000000;stroke-width:0.25;stroke-miterlimit:10;" x1="128" x2="128" y1="160" y2="-32"/>
              <line style="fill:none;stroke:#000000;stroke-width:0.25;stroke-miterlimit:10;" x1="132" x2="132" y1="160" y2="-32"/>
              <line style="fill:none;stroke:#000000;stroke-width:0.25;stroke-miterlimit:10;" x1="136" x2="136" y1="160" y2="-32"/>
              <line style="fill:none;stroke:#000000;stroke-width:0.25;stroke-miterlimit:10;" x1="137" x2="137" y1="166.05" y2="-25.95"/>
              <line style="fill:none;stroke:#000000;stroke-width:0.25;stroke-miterlimit:10;" x1="144" x2="144" y1="160" y2="-32"/>
              <line style="fill:none;stroke:#000000;stroke-width:0.25;stroke-miterlimit:10;" x1="148" x2="148" y1="160" y2="-32"/>
              <line style="fill:none;stroke:#000000;stroke-width:0.25;stroke-miterlimit:10;" x1="152" x2="152" y1="160" y2="-32"/>
              <line style="fill:none;stroke:#000000;stroke-width:0.25;stroke-miterlimit:10;" x1="156" x2="156" y1="160" y2="-32"/>
            </g>
            <g>
              <line style="fill:none;stroke:#000000;stroke-width:0.25;stroke-miterlimit:10;" x1="-32" x2="160" y1="-28" y2="-28"/>
              <line style="fill:none;stroke:#000000;stroke-width:0.25;stroke-miterlimit:10;" x1="-32" x2="160" y1="-24" y2="-24"/>
              <line style="fill:none;stroke:#000000;stroke-width:0.25;stroke-miterlimit:10;" x1="-32" x2="160" y1="-20" y2="-20"/>
              <line style="fill:none;stroke:#000000;stroke-width:0.25;stroke-miterlimit:10;" x1="-32" x2="160" y1="-16" y2="-16"/>
              <line style="fill:none;stroke:#000000;stroke-width:0.25;stroke-miterlimit:10;" x1="-32" x2="160" y1="-12" y2="-12"/>
              <line style="fill:none;stroke:#000000;stroke-width:0.25;stroke-miterlimit:10;" x1="-32" x2="160" y1="-8" y2="-8"/>
              <line style="fill:none;stroke:#000000;stroke-width:0.25;stroke-miterlimit:10;" x1="-32" x2="160" y1="-4" y2="-4"/>
              <line style="fill:none;stroke:#000000;stroke-width:0.25;stroke-miterlimit:10;" x1="-32" x2="160" y1="0" y2="0"/>
              <line style="fill:none;stroke:#000000;stroke-width:0.25;stroke-miterlimit:10;" x1="-32" x2="160" y1="4" y2="4"/>
              <line style="fill:none;stroke:#000000;stroke-width:0.25;stroke-miterlimit:10;" x1="-32" x2="160" y1="8" y2="8"/>
              <line style="fill:none;stroke:#000000;stroke-width:0.25;stroke-miterlimit:10;" x1="-32" x2="160" y1="12" y2="12"/>
              <line style="fill:none;stroke:#000000;stroke-width:0.25;stroke-miterlimit:10;" x1="-32" x2="160" y1="16" y2="16"/>
              <line style="fill:none;stroke:#000000;stroke-width:0.25;stroke-miterlimit:10;" x1="-32" x2="160" y1="20" y2="20"/>
              <line style="fill:none;stroke:#000000;stroke-width:0.25;stroke-miterlimit:10;" x1="-32" x2="160" y1="24" y2="24"/>
              <line style="fill:none;stroke:#000000;stroke-width:0.25;stroke-miterlimit:10;" x1="-32" x2="160" y1="28" y2="28"/>
              <line style="fill:none;stroke:#000000;stroke-width:0.25;stroke-miterlimit:10;" x1="-32" x2="160" y1="32" y2="32"/>
              <line style="fill:none;stroke:#000000;stroke-width:0.25;stroke-miterlimit:10;" x1="-32" x2="160" y1="36" y2="36"/>
              <line style="fill:none;stroke:#000000;stroke-width:0.25;stroke-miterlimit:10;" x1="-32" x2="160" y1="40" y2="40"/>
              <line style="fill:none;stroke:#000000;stroke-width:0.25;stroke-miterlimit:10;" x1="-32" x2="160" y1="44" y2="44"/>
              <line style="fill:none;stroke:#000000;stroke-width:0.25;stroke-miterlimit:10;" x1="-32" x2="160" y1="48" y2="48"/>
              <line style="fill:none;stroke:#000000;stroke-width:0.25;stroke-miterlimit:10;" x1="-32" x2="160" y1="52" y2="52"/>
              <line style="fill:none;stroke:#000000;stroke-width:0.25;stroke-miterlimit:10;" x1="-32" x2="160" y1="56" y2="56"/>
              <line style="fill:none;stroke:#000000;stroke-width:0.25;stroke-miterlimit:10;" x1="-32" x2="160" y1="60" y2="60"/>
              <line style="fill:none;stroke:#000000;stroke-width:0.25;stroke-miterlimit:10;" x1="-32" x2="160" y1="64" y2="64"/>
              <line style="fill:none;stroke:#000000;stroke-width:0.25;stroke-miterlimit:10;" x1="-32" x2="160" y1="68" y2="68"/>
              <line style="fill:none;stroke:#000000;stroke-width:0.25;stroke-miterlimit:10;" x1="-32" x2="160" y1="72" y2="72"/>
              <line style="fill:none;stroke:#000000;stroke-width:0.25;stroke-miterlimit:10;" x1="-32" x2="160" y1="76" y2="76"/>
              <line style="fill:none;stroke:#000000;stroke-width:0.25;stroke-miterlimit:10;" x1="-32" x2="160" y1="80" y2="80"/>
              <line style="fill:none;stroke:#000000;stroke-width:0.25;stroke-miterlimit:10;" x1="-32" x2="160" y1="84" y2="84"/>
              <line style="fill:none;stroke:#000000;stroke-width:0.25;stroke-miterlimit:10;" x1="-32" x2="160" y1="88" y2="88"/>
              <line style="fill:none;stroke:#000000;stroke-width:0.25;stroke-miterlimit:10;" x1="-32" x2="160" y1="92" y2="92"/>
              <line style="fill:none;stroke:#000000;stroke-width:0.25;stroke-miterlimit:10;" x1="-32" x2="160" y1="96" y2="96"/>
              <line style="fill:none;stroke:#000000;stroke-width:0.25;stroke-miterlimit:10;" x1="-32" x2="160" y1="100" y2="100"/>
              <line style="fill:none;stroke:#000000;stroke-width:0.25;stroke-miterlimit:10;" x1="-32" x2="160" y1="104" y2="104"/>
              <line style="fill:none;stroke:#000000;stroke-width:0.25;stroke-miterlimit:10;" x1="-32" x2="160" y1="108" y2="108"/>
              <line style="fill:none;stroke:#000000;stroke-width:0.25;stroke-miterlimit:10;" x1="-32" x2="160" y1="112" y2="112"/>
              <line style="fill:none;stroke:#000000;stroke-width:0.25;stroke-miterlimit:10;" x1="-32" x2="160" y1="116" y2="116"/>
              <line style="fill:none;stroke:#000000;stroke-width:0.25;stroke-miterlimit:10;" x1="-32" x2="160" y1="120" y2="120"/>
              <line style="fill:none;stroke:#000000;stroke-width:0.25;stroke-miterlimit:10;" x1="-32" x2="160" y1="124" y2="124"/>
              <line style="fill:none;stroke:#000000;stroke-width:0.25;stroke-miterlimit:10;" x1="-32" x2="160" y1="128" y2="128"/>
              <line style="fill:none;stroke:#000000;stroke-width:0.25;stroke-miterlimit:10;" x1="-32" x2="160" y1="132" y2="132"/>
              <line style="fill:none;stroke:#000000;stroke-width:0.25;stroke-miterlimit:10;" x1="-32" x2="160" y1="136" y2="136"/>
              <line style="fill:none;stroke:#000000;stroke-width:0.25;stroke-miterlimit:10;" x1="-32" x2="160" y1="140" y2="140"/>
              <line style="fill:none;stroke:#000000;stroke-width:0.25;stroke-miterlimit:10;" x1="-32" x2="160" y1="144" y2="144"/>
              <line style="fill:none;stroke:#000000;stroke-width:0.25;stroke-miterlimit:10;" x1="-32" x2="160" y1="148" y2="148"/>
              <line style="fill:none;stroke:#000000;stroke-width:0.25;stroke-miterlimit:10;" x1="-32" x2="160" y1="152" y2="152"/>
              <line style="fill:none;stroke:#000000;stroke-width:0.25;stroke-miterlimit:10;" x1="-32" x2="160" y1="156" y2="156"/>
            </g>
            <path d="M159.75-31.75v191.5h-191.5v-191.5H159.75 M160-32H-32v192h192V-32L160-32z"/>
          </g>
        </g>
        <g>
          <rect height="128" style="opacity:0.3;fill:#F44336;" width="4" x="0" y="0"/>
          <rect height="128" style="opacity:0.3;fill:#F44336;" width="4" x="124" y="0"/>
          <rect height="120" style="opacity:0.3;fill:#F44336;" transform="matrix(-1.836970e-16 1 -1 -1.836970e-16 66 -62)" width="4" x="62" y="-58"/>
          <rect height="120" style="opacity:0.3;fill:#F44336;" transform="matrix(-1.836970e-16 1 -1 -1.836970e-16 190 62)" width="4" x="62" y="66"/>
        </g>
      </g>
    </g>
  </g>
  </g>

  <!-- Title text -->
  <g fill="#C05F00" font-family="Arial, Helvetica, 'Liberation Sans', sans-serif"
     font-weight="bold" font-size="106">
    <text x="555" y="560">Digital Twin as a Service</text>
    <text x="143" y="667">DTaaS</text>
  </g>
</svg>
